HIERARCHY
ROOT Hips
{
    OFFSET 0.000000 0.000000 0.000000
    CHANNELS 6 Xposition Yposition Zposition Zrotation Xrotation Yrotation
    JOINT Spine
    {
        OFFSET -0.000000 14.517291 0.000000
        CHANNELS 3 Zrotation Xrotation Yrotation
        JOINT Spine1
        {
            OFFSET -0.000000 37.558300 0.000000
            CHANNELS 3 Zrotation Xrotation Yrotation
            JOINT Neck
            {
                OFFSET -0.000000 37.404057 3.400369
                CHANNELS 3 Zrotation Xrotation Yrotation
                JOINT Head
                {
                    OFFSET -0.000000 24.785618 -3.540803
                    CHANNELS 3 Zrotation Xrotation Yrotation
                    End Site
                    {
                        OFFSET -0.000000 35.408028 0.000000
                    }
                }
            }
            JOINT LeftShoulder
            {
                OFFSET 6.992933 33.973492 -0.192664
                CHANNELS 3 Zrotation Xrotation Yrotation
                JOINT LeftArm
                {
                    OFFSET 21.527611 0.000000 0.000000
                    CHANNELS 3 Zrotation Xrotation Yrotation
                    JOINT LeftForeArm
                    {
                        OFFSET 56.353916 0.000000 0.000000
                        CHANNELS 3 Zrotation Xrotation Yrotation
                        JOINT LeftHand
                        {
                            OFFSET 47.774071 0.000000 0.000000
                            CHANNELS 3 Zrotation Xrotation Yrotation
                            End Site
                            {
                                OFFSET 26.556021 0.000000 0.000000
                            }
                        }
                    }
                }
            }
            JOINT RightShoulder
            {
                OFFSET -7.065357 33.973492 -0.192664
                CHANNELS 3 Zrotation Xrotation Yrotation
                JOINT RightArm
                {
                    OFFSET -21.527611 0.000000 0.000000
                    CHANNELS 3 Zrotation Xrotation Yrotation
                    JOINT RightForeArm
                    {
                        OFFSET -56.353916 0.000000 0.000000
                        CHANNELS 3 Zrotation Xrotation Yrotation
                        JOINT RightHand
                        {
                            OFFSET -47.774071 0.000000 0.000000
                            CHANNELS 3 Zrotation Xrotation Yrotation
                            End Site
                            {
                                OFFSET -26.556021 0.000000 0.000000
                            }
                        }
                    }
                }
            }
        }
    }
    JOINT LeftUpLeg
    {
        OFFSET 17.704014 0.000000 0.000000
        CHANNELS 3 Zrotation Xrotation Yrotation
        JOINT LeftLeg
        {
            OFFSET -0.000000 -81.181816 0.000000
            CHANNELS 3 Zrotation Xrotation Yrotation
            JOINT LeftFoot
            {
                OFFSET -0.000000 -62.821102 0.000000
                CHANNELS 3 Zrotation Xrotation Yrotation
                JOINT LeftToeBase
                {
                    OFFSET -0.000000 -11.507608 26.556021
                    CHANNELS 3 Zrotation Xrotation Yrotation
                    End Site
                    {
                        OFFSET -0.000000 0.000000 7.081605
                    }
                }
            }
        }
    }
    JOINT RightUpLeg
    {
        OFFSET -17.704014 0.000000 0.000000
        CHANNELS 3 Zrotation Xrotation Yrotation
        JOINT RightLeg
        {
            OFFSET -0.000000 -81.181816 0.000000
            CHANNELS 3 Zrotation Xrotation Yrotation
            JOINT RightFoot
            {
                OFFSET -0.000000 -62.821102 0.000000
                CHANNELS 3 Zrotation Xrotation Yrotation
                JOINT RightToeBase
                {
                    OFFSET -0.000000 -11.507608 26.556021
                    CHANNELS 3 Zrotation Xrotation Yrotation
                    End Site
                    {
                        OFFSET -0.000000 0.000000 7.081605
                    }
                }
            }
        }
    }
}
MOTION
Frames:    5
Frame Time:    0.008333
-21.247662    163.188293    -78.261353    -7.871126    -22.049732    44.476265    2.445796    4.701869    -3.103714    8.778601    9.942129    -1.768956    14.179811    -1.752043    -3.112197    3.659011    -1.739395    -5.004125    14.809930    5.085249    -20.466728    -31.087751    23.724487    -27.524984    -5.716805    -28.855808    -114.933655    -2.703604    -36.142597    -14.343074    9.616123    8.075760    -9.510096    31.783772    13.422821    17.788561    -11.578464    5.602395    35.122799    -24.061375    2.490768    31.074890    24.538630    -1.002376    5.723234    -4.879964    37.772312    -17.159533    8.635115    -22.489370    34.696934    0.000000    0.000000    0.000000    -88.109245    -43.411858    -54.225426    7.484550    14.987306    -8.357665    20.193581    13.141427    -35.476368    0.000000    0.000000    0.000000    
-21.286592    163.218384    -78.273102    -7.919317    -22.115196    44.445293    2.449383    4.720130    -3.085455    8.746481    9.949846    -1.760453    14.274973    -1.820418    -3.086915    3.679567    -1.635300    -5.002457    14.679158    5.189123    -20.522873    -30.923006    23.219358    -29.443893    -5.256523    -29.838173    -114.160370    -2.862014    -36.346313    -14.531924    9.665758    8.083948    -9.494478    31.755976    13.702107    17.875906    -11.720462    5.409121    34.997269    -23.984259    2.359772    31.034410    24.625671    -0.999572    5.685235    -4.900147    37.780434    -17.126179    8.605162    -22.476082    34.683254    0.000000    0.000000    0.000000    -88.018745    -43.445568    -54.219814    7.490124    15.027972    -8.337018    20.180660    13.140814    -35.470562    0.000000    0.000000    0.000000    
-21.331068    163.259811    -78.278969    -7.979540    -22.196980    44.409565    2.468903    4.762741    -3.078907    8.694083    9.913393    -1.750296    14.433674    -1.861191    -3.043648    3.649648    -1.537461    -4.996947    14.587124    5.292321    -20.615038    -30.808826    22.792353    -31.282803    -4.725919    -30.897259    -113.391747    -3.075272    -36.558609    -14.713453    9.739558    8.083432    -9.438564    31.735466    13.833817    17.919966    -11.735201    5.329674    34.892948    -23.970051    2.281626    31.014614    24.736126    -0.986747    5.665078    -4.908621    37.774174    -17.114769    8.566594    -22.458210    34.670761    0.000000    0.000000    0.000000    -87.899597    -43.476753    -54.173080    7.515505    15.067699    -8.357601    20.162004    13.110453    -35.453365    0.000000    0.000000    0.000000    
-21.377497    163.301376    -78.280441    -8.047227    -22.272455    44.377880    2.500294    4.833253    -3.081925    8.606709    9.819443    -1.735681    14.668560    -1.877648    -2.996058    3.545085    -1.459424    -5.007630    14.515310    5.397824    -20.713516    -30.731607    22.371191    -33.078720    -4.043692    -31.990055    -112.546425    -3.516339    -36.616604    -15.031571    9.861650    8.095531    -9.412775    31.684959    13.982516    17.975863    -11.763131    5.256239    34.796246    -23.935150    2.216947    31.010475    24.852190    -0.983882    5.634597    -4.933361    37.760262    -17.092066    8.560667    -22.418070    34.670219    0.000000    0.000000    0.000000    -87.801865    -43.499371    -54.153919    7.559069    15.120182    -8.395273    20.122623    13.082891    -35.420460    0.000000    0.000000    0.000000    
-21.422731    163.351471    -78.279434    -8.114176    -22.365700    44.342487    2.544187    4.937277    -3.080497    8.517950    9.694185    -1.716884    14.937531    -1.877801    -2.950770    3.402145    -1.402197    -5.029528    14.458271    5.513954    -20.800545    -30.651554    21.819433    -34.840939    -3.666459    -32.810688    -111.907974    -3.665140    -36.870575    -15.097675    9.992588    8.143354    -9.407907    31.636864    14.045898    18.058968    -11.753380    5.233705    34.711208    -23.919956    2.182775    31.024918    24.975716    -0.959726    5.625497    -4.927174    37.737156    -17.106617    8.527240    -22.397247    34.671722    0.000000    0.000000    0.000000    -87.681175    -43.528477    -54.110477    7.601936    15.194352    -8.435599    20.076582    13.041464    -35.359112    0.000000    0.000000    0.000000    
